<svg width="20" height="20" viewBox="0 0 20 20" fill="none" xmlns="http://www.w3.org/2000/svg">
<g clip-path="url(#clip0_12_550)">
<path fill-rule="evenodd" clip-rule="evenodd" d="M0.833252 2.36492C0.833252 1.9587 0.994624 1.56911 1.28187 1.28187C1.56911 0.994626 1.9587 0.833254 2.36492 0.833254H17.6333C17.8346 0.832925 18.034 0.872306 18.22 0.949143C18.4061 1.02598 18.5752 1.13876 18.7176 1.28103C18.8601 1.42331 18.973 1.59227 19.0501 1.77826C19.1271 1.96425 19.1667 2.16361 19.1666 2.36492V17.6333C19.1668 17.8346 19.1273 18.034 19.0504 18.2201C18.9735 18.4062 18.8606 18.5753 18.7183 18.7177C18.5759 18.8601 18.4069 18.973 18.2209 19.0501C18.0348 19.1271 17.8354 19.1667 17.6341 19.1666H2.36492C2.16371 19.1666 1.96447 19.1269 1.77858 19.0499C1.5927 18.9729 1.42381 18.86 1.28157 18.7177C1.13933 18.5754 1.02653 18.4064 0.949604 18.2205C0.87268 18.0346 0.833143 17.8353 0.833252 17.6341V2.36492ZM8.08992 7.82325H10.5724V9.06992C10.9308 8.35325 11.8474 7.70825 13.2249 7.70825C15.8658 7.70825 16.4916 9.13575 16.4916 11.7549V16.6066H13.8191V12.3516C13.8191 10.8599 13.4608 10.0183 12.5508 10.0183C11.2883 10.0183 10.7633 10.9258 10.7633 12.3516V16.6066H8.08992V7.82325ZM3.50659 16.4924H6.17992V7.70825H3.50659V16.4916V16.4924ZM6.56242 4.84325C6.56746 5.07215 6.52673 5.29974 6.44262 5.51268C6.35851 5.72562 6.23271 5.91962 6.07261 6.08328C5.91251 6.24694 5.72133 6.37698 5.5103 6.46576C5.29926 6.55454 5.07262 6.60027 4.84367 6.60027C4.61472 6.60027 4.38808 6.55454 4.17704 6.46576C3.966 6.37698 3.77483 6.24694 3.61473 6.08328C3.45463 5.91962 3.32883 5.72562 3.24472 5.51268C3.16061 5.29974 3.11988 5.07215 3.12492 4.84325C3.13481 4.39397 3.32024 3.96641 3.64149 3.65216C3.96274 3.3379 4.39427 3.16194 4.84367 3.16194C5.29307 3.16194 5.7246 3.3379 6.04585 3.65216C6.3671 3.96641 6.55253 4.39397 6.56242 4.84325Z" fill="black"/>
</g>
<defs>
<clipPath id="clip0_12_550">
<rect width="20" height="20" fill="white"/>
</clipPath>
</defs>
</svg>
