<svg width="28" height="28" viewBox="0 0 28 28" fill="none" xmlns="http://www.w3.org/2000/svg">
<path d="M18.6667 22.1666C17.7384 22.1666 16.8482 21.7978 16.1918 21.1415C15.5354 20.4851 15.1667 19.5948 15.1667 18.6666C15.1667 17.7383 15.5354 16.8481 16.1918 16.1917C16.8482 15.5353 17.7384 15.1666 18.6667 15.1666C19.5949 15.1666 20.4852 15.5353 21.1415 16.1917C21.7979 16.8481 22.1667 17.7383 22.1667 18.6666C22.1667 19.5948 21.7979 20.4851 21.1415 21.1415C20.4852 21.7978 19.5949 22.1666 18.6667 22.1666ZM9.33333 22.1666C8.40507 22.1666 7.51483 21.7978 6.85845 21.1415C6.20208 20.4851 5.83333 19.5948 5.83333 18.6666C5.83333 17.7383 6.20208 16.8481 6.85845 16.1917C7.51483 15.5353 8.40507 15.1666 9.33333 15.1666C10.2616 15.1666 11.1518 15.5353 11.8082 16.1917C12.4646 16.8481 12.8333 17.7383 12.8333 18.6666C12.8333 19.5948 12.4646 20.4851 11.8082 21.1415C11.1518 21.7978 10.2616 22.1666 9.33333 22.1666ZM18.6667 12.8333C17.7384 12.8333 16.8482 12.4645 16.1918 11.8081C15.5354 11.1517 15.1667 10.2615 15.1667 9.33325C15.1667 8.40499 15.5354 7.51476 16.1918 6.85838C16.8482 6.202 17.7384 5.83325 18.6667 5.83325C19.5949 5.83325 20.4852 6.202 21.1415 6.85838C21.7979 7.51476 22.1667 8.40499 22.1667 9.33325C22.1667 10.2615 21.7979 11.1517 21.1415 11.8081C20.4852 12.4645 19.5949 12.8333 18.6667 12.8333ZM9.33333 12.8333C8.40507 12.8333 7.51483 12.4645 6.85845 11.8081C6.20208 11.1517 5.83333 10.2615 5.83333 9.33325C5.83333 8.40499 6.20208 7.51476 6.85845 6.85838C7.51483 6.202 8.40507 5.83325 9.33333 5.83325C10.2616 5.83325 11.1518 6.202 11.8082 6.85838C12.4646 7.51476 12.8333 8.40499 12.8333 9.33325C12.8333 10.2615 12.4646 11.1517 11.8082 11.8081C11.1518 12.4645 10.2616 12.8333 9.33333 12.8333Z" fill="black"/>
</svg>
