<svg width="22" height="22" viewBox="0 0 22 22" fill="none" xmlns="http://www.w3.org/2000/svg">
<path d="M17.4167 3.66683H15.5834V2.75016C15.5834 2.50705 15.4868 2.27389 15.3149 2.10198C15.143 1.93007 14.9098 1.8335 14.6667 1.8335C14.4236 1.8335 14.1904 1.93007 14.0185 2.10198C13.8466 2.27389 13.75 2.50705 13.75 2.75016V3.66683H8.25004V2.75016C8.25004 2.50705 8.15346 2.27389 7.98155 2.10198C7.80965 1.93007 7.57649 1.8335 7.33337 1.8335C7.09026 1.8335 6.8571 1.93007 6.68519 2.10198C6.51328 2.27389 6.41671 2.50705 6.41671 2.75016V3.66683H4.58337C3.85403 3.66683 3.15456 3.95656 2.63883 4.47229C2.12311 4.98801 1.83337 5.68748 1.83337 6.41683V17.4168C1.83337 18.1462 2.12311 18.8456 2.63883 19.3614C3.15456 19.8771 3.85403 20.1668 4.58337 20.1668H17.4167C18.1461 20.1668 18.8455 19.8771 19.3612 19.3614C19.877 18.8456 20.1667 18.1462 20.1667 17.4168V6.41683C20.1667 5.68748 19.877 4.98801 19.3612 4.47229C18.8455 3.95656 18.1461 3.66683 17.4167 3.66683ZM18.3334 17.4168C18.3334 17.6599 18.2368 17.8931 18.0649 18.065C17.893 18.2369 17.6598 18.3335 17.4167 18.3335H4.58337C4.34026 18.3335 4.1071 18.2369 3.93519 18.065C3.76328 17.8931 3.66671 17.6599 3.66671 17.4168V11.0002H18.3334V17.4168ZM18.3334 9.16683H3.66671V6.41683C3.66671 6.17371 3.76328 5.94056 3.93519 5.76865C4.1071 5.59674 4.34026 5.50016 4.58337 5.50016H6.41671V6.41683C6.41671 6.65994 6.51328 6.8931 6.68519 7.06501C6.8571 7.23692 7.09026 7.3335 7.33337 7.3335C7.57649 7.3335 7.80965 7.23692 7.98155 7.06501C8.15346 6.8931 8.25004 6.65994 8.25004 6.41683V5.50016H13.75V6.41683C13.75 6.65994 13.8466 6.8931 14.0185 7.06501C14.1904 7.23692 14.4236 7.3335 14.6667 7.3335C14.9098 7.3335 15.143 7.23692 15.3149 7.06501C15.4868 6.8931 15.5834 6.65994 15.5834 6.41683V5.50016H17.4167C17.6598 5.50016 17.893 5.59674 18.0649 5.76865C18.2368 5.94056 18.3334 6.17371 18.3334 6.41683V9.16683Z" fill="black"/>
</svg>
