<svg width="27" height="33" viewBox="0 0 27 33" fill="none" xmlns="http://www.w3.org/2000/svg">
<path d="M25.3952 7.39498C25.0073 6.14356 24.448 5.00953 23.7486 4.05638C23.0486 3.10039 22.2234 2.34067 21.3177 1.81855C20.3786 1.27499 19.3713 0.996767 18.3544 1.00003C16.9277 1.00003 15.5358 1.54436 14.3262 2.57256C14.0368 2.81852 13.7619 3.08867 13.5014 3.38302C13.241 3.08867 12.9661 2.81852 12.6767 2.57256C11.4671 1.54436 10.0751 1.00003 8.64844 1.00003C7.62113 1.00003 6.62564 1.27421 5.68514 1.81855C4.77647 2.34273 3.95751 3.09673 3.25431 4.05638C2.55399 5.00846 1.99455 6.14275 1.60771 7.39498C1.20546 8.69736 1 10.0804 1 11.5037C1 12.8464 1.19678 14.2456 1.58745 15.6689C1.91446 16.8584 2.38326 18.0922 2.98229 19.3381C3.93147 21.3099 5.2366 23.3662 6.85715 25.4509C9.54264 28.9064 12.2021 31.2934 12.315 31.3902L13.0008 32.0031C13.3047 32.2732 13.6953 32.2732 13.9992 32.0031L14.685 31.3902C14.7979 31.2894 17.4544 28.9064 20.1428 25.4509C21.7634 23.3662 23.0685 21.3099 24.0177 19.3381C24.6167 18.0922 25.0884 16.8584 25.4125 15.6689C25.8032 14.2456 26 12.8464 26 11.5037C26.0029 10.0804 25.7974 8.69736 25.3952 7.39498Z" stroke="#FF0000"/>
</svg>
